<svg width="39" height="38" viewBox="0 0 39 38" fill="none" xmlns="http://www.w3.org/2000/svg">
<g filter="url(#filter0_di_2001_105)">
<path d="M6.79666 21.7458C6.76255 21.684 6.71661 21.6296 6.66146 21.5856C6.60631 21.5416 6.54304 21.5089 6.47525 21.4893C6.40745 21.4698 6.33647 21.4637 6.26636 21.4716C6.19624 21.4795 6.12837 21.5011 6.0666 21.5352C6.00484 21.5693 5.9504 21.6153 5.90639 21.6704C5.86238 21.7256 5.82966 21.7888 5.81011 21.8566C5.77062 21.9935 5.78713 22.1405 5.85602 22.2653C11.4483 32.5796 26.6157 32.5769 32.2059 22.2653C32.2706 22.1409 32.2842 21.9962 32.2438 21.862C32.2033 21.7278 32.1119 21.6147 31.9892 21.5469C31.8665 21.4791 31.7222 21.4619 31.587 21.4991C31.4518 21.5363 31.3365 21.6248 31.2658 21.7458C30.0595 23.9349 28.288 25.7602 26.136 27.0314C23.984 28.3026 21.5304 28.9732 19.0309 28.9732C16.5315 28.9732 14.0779 28.3026 11.9259 27.0314C9.77391 25.7602 8.00294 23.9349 6.79666 21.7458ZM29.6246 5.91602C29.7172 6.0243 29.849 6.09136 29.9911 6.10244C30.1331 6.11353 30.2738 6.06772 30.382 5.97511C30.4903 5.88251 30.5574 5.75068 30.5685 5.60862C30.5796 5.46657 30.5338 5.32594 30.4411 5.21766C24.6936 -1.73967 13.3677 -1.73913 7.62073 5.21873C7.53211 5.32749 7.48956 5.46661 7.50216 5.60633C7.51476 5.74606 7.58153 5.87531 7.68818 5.96646C7.79483 6.0576 7.93291 6.10341 8.07289 6.09409C8.21288 6.08476 8.34366 6.02105 8.43728 5.91656C13.7739 -0.543314 24.2885 -0.542239 29.6246 5.91656V5.91602Z" fill="url(#paint0_radial_2001_105)"/>
<path d="M12.0061 5.50623C11.8917 5.59114 11.8157 5.71803 11.7948 5.85897C11.774 5.99992 11.8099 6.14337 11.8949 6.25778C11.9798 6.37218 12.1067 6.44817 12.2476 6.46903C12.3885 6.48988 12.532 6.45389 12.6464 6.36898C14.4957 5.00544 16.7329 4.26981 19.0305 4.26981C21.3281 4.26981 23.5654 5.00544 25.4147 6.36898C25.5291 6.45389 25.6725 6.48988 25.8135 6.46903C25.9544 6.44817 26.0813 6.37218 26.1662 6.25778C26.2511 6.14337 26.2871 5.99992 26.2663 5.85897C26.2454 5.71803 26.1694 5.59114 26.055 5.50623C24.0204 4.00564 21.5587 3.19604 19.0305 3.19604C16.5024 3.19604 14.0407 4.00564 12.0061 5.50623ZM19.0305 26.8241C20.8128 26.8277 22.5726 26.4258 24.1766 25.6487C25.7806 24.8717 27.1868 23.7398 28.2887 22.339C28.3772 22.2273 28.4177 22.085 28.4012 21.9434C28.3848 21.8019 28.3128 21.6727 28.2011 21.5842C28.0894 21.4957 27.9472 21.4552 27.8056 21.4717C27.6641 21.4881 27.5348 21.5601 27.4464 21.6718C23.326 27.0744 14.7345 27.0739 10.6147 21.6718C10.5262 21.5601 10.397 21.4881 10.2555 21.4717C10.1139 21.4552 9.97163 21.4957 9.85993 21.5842C9.74823 21.6727 9.67625 21.8019 9.65983 21.9434C9.64341 22.085 9.68389 22.2273 9.77237 22.339C10.8743 23.7398 12.2805 24.8717 13.8845 25.6487C15.4885 26.4258 17.2482 26.8277 19.0305 26.8241Z" fill="url(#paint1_radial_2001_105)"/>
<path d="M4.27274 16.3852C4.08376 16.7442 3.99013 17.1457 4.00082 17.5512C4.01152 17.9568 4.12618 18.3528 4.33381 18.7013C4.54145 19.0498 4.83511 19.3392 5.18665 19.5417C5.5382 19.7441 5.93585 19.8529 6.34151 19.8577H12.3195C12.3175 20.2122 12.3853 20.5637 12.5191 20.8921C12.653 21.2204 12.8502 21.5191 13.0995 21.7712C13.3489 22.0233 13.6455 22.2238 13.9723 22.3612C14.2992 22.4987 14.6499 22.5703 15.0045 22.5722H23.0571C23.4121 22.5719 23.7636 22.5013 24.0911 22.3644C24.4187 22.2275 24.7159 22.0271 24.9656 21.7747C25.2152 21.5223 25.4124 21.2229 25.5457 20.8939C25.6789 20.5648 25.7457 20.2127 25.7421 19.8577H31.7201C32.1257 19.8529 32.5234 19.7441 32.8749 19.5417C33.2265 19.3392 33.5201 19.0498 33.7278 18.7013C33.9354 18.3528 34.0501 17.9568 34.0608 17.5512C34.0715 17.1457 33.9778 16.7442 33.7889 16.3852C33.0545 15.0247 31.8385 13.9875 30.3792 13.4768C30.7871 13.1625 31.1175 12.7589 31.3449 12.297C31.5723 11.8351 31.6908 11.3271 31.6911 10.8122C31.531 6.34807 25.105 6.34807 24.9454 10.8122C24.9458 11.3272 25.0644 11.8352 25.2921 12.2972C25.5197 12.7591 25.8502 13.1626 26.2583 13.4768C24.9415 13.9407 23.8202 14.8362 23.0765 16.0177C22.5191 15.6433 21.9123 15.3482 21.2736 15.141C21.7835 14.7823 22.1998 14.3064 22.4872 13.7532C22.7747 13.2 22.925 12.5858 22.9255 11.9624C22.7429 6.80953 15.3187 6.80792 15.1361 11.9624C15.1365 12.5858 15.2869 13.2 15.5743 13.7532C15.8618 14.3064 16.2781 14.7823 16.788 15.141C16.1491 15.3482 15.5421 15.6432 14.9846 16.0177C14.2395 14.8377 13.1189 13.9428 11.8033 13.4773C12.2113 13.1632 12.5419 12.7596 12.7695 12.2977C12.9971 11.8358 13.1157 11.3277 13.1162 10.8128C12.9615 6.35291 6.52792 6.34592 6.37052 10.8128C6.37092 11.3276 6.48938 11.8354 6.71681 12.2972C6.94423 12.7591 7.27456 13.1626 7.68237 13.4768C6.22312 13.9875 5.00716 15.0247 4.27274 16.3852ZM26.0198 10.8122C26.029 10.2087 26.2753 9.63308 26.7053 9.20957C27.1353 8.78606 27.7147 8.54868 28.3182 8.54868C28.9218 8.54868 29.5012 8.78606 29.9312 9.20957C30.3612 9.63308 30.6074 10.2087 30.6167 10.8122C30.6074 11.4157 30.3612 11.9914 29.9312 12.4149C29.5012 12.8384 28.9218 13.0758 28.3182 13.0758C27.7147 13.0758 27.1353 12.8384 26.7053 12.4149C26.2753 11.9914 26.029 11.4157 26.0198 10.8122ZM28.3142 14.1853C29.2436 14.1846 30.1558 14.4362 30.9534 14.9133C31.751 15.3904 32.404 16.0752 32.8428 16.8945C32.9457 17.0895 32.9967 17.3077 32.991 17.5281C32.9854 17.7486 32.9233 17.9638 32.8106 18.1534C32.6979 18.3429 32.5385 18.5004 32.3476 18.6107C32.1566 18.721 31.9406 18.7804 31.7201 18.7833H25.5036C25.1171 17.988 24.5813 17.2745 23.9253 16.6817C24.3801 15.9231 25.0231 15.2947 25.792 14.8573C26.5609 14.42 27.4296 14.1885 28.3142 14.1853ZM16.211 11.9624C16.3292 8.23527 21.7329 8.23634 21.8506 11.9624C21.7324 15.6895 16.3287 15.689 16.211 11.9624ZM24.4748 19.1126C24.605 19.3588 24.6697 19.6344 24.6628 19.9129C24.6558 20.1914 24.5774 20.4634 24.4351 20.7028C24.2927 20.9423 24.0913 21.1412 23.85 21.2804C23.6087 21.4196 23.3357 21.4944 23.0571 21.4977H15.0045C14.7248 21.4973 14.4501 21.4242 14.2071 21.2857C13.9641 21.1472 13.7613 20.9481 13.6184 20.7077C13.4754 20.4673 13.3973 20.194 13.3917 19.9144C13.3861 19.6348 13.4531 19.3585 13.5862 19.1126C15.8382 14.8031 22.2239 14.8037 24.4748 19.1126ZM7.44492 10.8128C7.45415 10.2093 7.70037 9.63362 8.1304 9.21011C8.56043 8.7866 9.13979 8.54922 9.74335 8.54922C10.3469 8.54922 10.9263 8.7866 11.3563 9.21011C11.7863 9.63362 12.0325 10.2093 12.0418 10.8128C12.0325 11.4163 11.7863 11.9919 11.3563 12.4154C10.9263 12.8389 10.3469 13.0763 9.74335 13.0763C9.13979 13.0763 8.56043 12.8389 8.1304 12.4154C7.70037 11.9919 7.45415 11.4163 7.44492 10.8128ZM9.73878 14.1853C10.6247 14.1878 11.495 14.419 12.2654 14.8564C13.0358 15.2938 13.6802 15.9227 14.1363 16.6823C13.4804 17.2749 12.9446 17.9882 12.558 18.7833H6.34205C6.12156 18.7804 5.90551 18.721 5.71457 18.6107C5.52363 18.5004 5.36419 18.3429 5.25153 18.1534C5.13886 17.9638 5.07673 17.7486 5.07108 17.5281C5.06544 17.3077 5.11647 17.0895 5.21929 16.8945C5.65738 16.0765 6.30901 15.3927 7.10484 14.9156C7.90067 14.4386 8.81093 14.1862 9.73878 14.1853Z" fill="url(#paint2_radial_2001_105)"/>
</g>
<defs>
<filter id="filter0_di_2001_105" x="0" y="0" width="38.0615" height="38" filterUnits="userSpaceOnUse" color-interpolation-filters="sRGB">
<feFlood flood-opacity="0" result="BackgroundImageFix"/>
<feColorMatrix in="SourceAlpha" type="matrix" values="0 0 0 0 0 0 0 0 0 0 0 0 0 0 0 0 0 0 127 0" result="hardAlpha"/>
<feOffset dy="4"/>
<feGaussianBlur stdDeviation="2"/>
<feComposite in2="hardAlpha" operator="out"/>
<feColorMatrix type="matrix" values="0 0 0 0 0 0 0 0 0 0 0 0 0 0 0 0 0 0 0.25 0"/>
<feBlend mode="normal" in2="BackgroundImageFix" result="effect1_dropShadow_2001_105"/>
<feBlend mode="normal" in="SourceGraphic" in2="effect1_dropShadow_2001_105" result="shape"/>
<feColorMatrix in="SourceAlpha" type="matrix" values="0 0 0 0 0 0 0 0 0 0 0 0 0 0 0 0 0 0 127 0" result="hardAlpha"/>
<feOffset dy="-5"/>
<feComposite in2="hardAlpha" operator="arithmetic" k2="-1" k3="1"/>
<feColorMatrix type="matrix" values="0 0 0 0 0.980392 0 0 0 0 0.368627 0 0 0 0 0.027451 0 0 0 0.4 0"/>
<feBlend mode="normal" in2="shape" result="effect2_innerShadow_2001_105"/>
</filter>
<radialGradient id="paint0_radial_2001_105" cx="0" cy="0" r="1" gradientUnits="userSpaceOnUse" gradientTransform="translate(19.0278 15) scale(13.2388 15)">
<stop offset="0.00480769" stop-color="#F5B201"/>
<stop offset="1" stop-color="#F9C301"/>
</radialGradient>
<radialGradient id="paint1_radial_2001_105" cx="0" cy="0" r="1" gradientUnits="userSpaceOnUse" gradientTransform="translate(19.0305 15.0101) scale(9.37428 11.814)">
<stop offset="0.00480769" stop-color="#F5B201"/>
<stop offset="1" stop-color="#F9C301"/>
</radialGradient>
<radialGradient id="paint2_radial_2001_105" cx="0" cy="0" r="1" gradientUnits="userSpaceOnUse" gradientTransform="translate(19.0308 15.0181) scale(15.0308 7.55402)">
<stop offset="0.00480769" stop-color="#F5B201"/>
<stop offset="1" stop-color="#F9C301"/>
</radialGradient>
</defs>
</svg>
