<svg width="40" height="40" viewBox="0 0 40 40" fill="none" xmlns="http://www.w3.org/2000/svg">
<g filter="url(#filter0_di_2001_168)">
<path d="M10.9402 1.61976e-08C9.52665 -4.12213e-05 8.14693 0.432221 6.98612 1.23879C6.38183 1.64165 7.00626 2.54002 7.59242 2.11501C8.79534 1.27962 10.2674 0.924814 11.7188 1.12043C13.1703 1.31605 14.4959 2.04793 15.4347 3.17197C16.3735 4.29602 16.8576 5.7308 16.7915 7.19386C16.7255 8.65691 16.1141 10.0422 15.0778 11.0771C14.0415 12.112 12.6554 12.7215 11.1922 12.7855C9.72907 12.8495 8.29495 12.3635 7.1722 11.4231C6.04944 10.4828 5.31939 9.15614 5.12577 7.70445C4.93214 6.25276 5.28897 4.78117 6.12601 3.5794C6.55304 2.99324 5.65265 2.36881 5.25181 2.9731C4.36669 4.24589 3.93398 5.77875 4.02288 7.3265C4.11178 8.87425 4.71715 10.3475 5.74217 11.5106C6.7672 12.6737 8.15265 13.4594 9.67696 13.7421C11.2013 14.0249 12.7763 13.7883 14.1503 13.0701C15.5243 12.352 16.6177 11.1939 17.2558 9.78098C17.8938 8.36806 18.0396 6.78199 17.6698 5.27643C17.3 3.77087 16.4361 2.43281 15.216 1.47625C13.996 0.519689 12.4905 -0.000105947 10.9402 1.61976e-08ZM10.9402 2.12508C10.6723 2.12508 10.4064 2.30234 10.4064 2.65887V3.27121C9.95059 3.38984 9.54681 3.65585 9.25791 4.02781C8.969 4.39978 8.8112 4.85683 8.80905 5.32781C8.81011 5.89234 9.03471 6.43348 9.43371 6.83285C9.8327 7.23223 10.3736 7.45733 10.9382 7.45893C11.5324 7.45893 12.0037 7.93027 12.0037 8.5265C12.0037 9.12072 11.5324 9.59408 10.9361 9.59408C10.7962 9.59462 10.6575 9.56732 10.5282 9.51376C10.3989 9.4602 10.2815 9.38146 10.1829 9.28211C10.0843 9.18276 10.0064 9.06479 9.95385 8.93507C9.90127 8.80535 9.87502 8.66647 9.87663 8.5265C9.89274 7.79934 8.79294 7.79934 8.80905 8.5265C8.80905 9.51351 9.49391 10.3434 10.4064 10.5811V11.1894C10.4064 11.9004 11.474 11.9004 11.474 11.1894V10.5811C12.3864 10.3394 13.0713 9.51149 13.0713 8.5265C13.0713 7.35419 12.1085 6.39337 10.9361 6.39337C10.7963 6.39418 10.6576 6.36713 10.5283 6.31379C10.399 6.26045 10.2816 6.1819 10.183 6.08271C10.0844 5.98352 10.0065 5.86568 9.95389 5.73607C9.90128 5.60646 9.87502 5.46767 9.87663 5.32781C9.87663 4.73359 10.3419 4.26023 10.9382 4.26023C11.5324 4.26023 12.0037 4.73359 12.0037 5.32781C12.0037 6.03885 13.0713 6.03885 13.0713 5.32781C13.0713 4.3408 12.3864 3.51293 11.4719 3.27323V2.65887C11.4719 2.30234 11.2061 2.12508 10.9402 2.12508ZM29.0587 3.19467H32.1084C30.8212 4.82423 20.3006 17.5868 6.14213 17.5868C5.41698 17.5707 5.41698 18.6685 6.14213 18.6544C20.3127 18.6544 30.7729 6.56257 32.7912 4.05477V6.92917C32.8094 7.6241 33.8427 7.6241 33.8588 6.92917V2.66491C33.8585 2.59481 33.8445 2.52545 33.8174 2.46079C33.7903 2.39613 33.7508 2.33743 33.701 2.28805C33.6513 2.23867 33.5923 2.19958 33.5274 2.173C33.4626 2.14642 33.3931 2.13287 33.323 2.13314H29.0326C28.3537 2.21371 28.4001 3.17654 29.0587 3.19467ZM4.54479 31.9789H35.4561C36.1813 31.993 36.1813 30.8952 35.4561 30.9113H33.8588V17.5868C33.8588 17.4452 33.8026 17.3095 33.7025 17.2094C33.6024 17.1092 33.4666 17.053 33.325 17.053C33.1834 17.053 33.0477 17.1092 32.9476 17.2094C32.8475 17.3095 32.7912 17.4452 32.7912 17.5868V30.9113H29.5945V13.8563H32.7932V15.4537C32.7932 16.1647 33.8588 16.1647 33.8588 15.4537V13.3225C33.8585 13.2524 33.8445 13.1831 33.8174 13.1184C33.7903 13.0538 33.7508 12.9951 33.701 12.9457C33.6513 12.8963 33.5923 12.8572 33.5274 12.8306C33.4626 12.804 33.3931 12.7905 33.323 12.7908H29.0587C28.9179 12.7913 28.7829 12.8475 28.6833 12.9471C28.5837 13.0467 28.5275 13.1817 28.527 13.3225V30.9113H26.3958V17.5868C26.3948 17.4463 26.3384 17.3118 26.2388 17.2127C26.1392 17.1135 26.0046 17.0576 25.8641 17.057H21.5736C21.4372 17.0637 21.3084 17.1223 21.2136 17.2207C21.1189 17.3192 21.0654 17.4502 21.064 17.5868V30.9113H18.9309V21.8511C18.9309 21.7102 18.8752 21.575 18.776 21.475C18.6767 21.375 18.542 21.3183 18.4011 21.3173H14.1369C13.9956 21.3178 13.8604 21.3743 13.7607 21.4743C13.661 21.5744 13.6051 21.7098 13.6051 21.8511V30.9113H11.4719V26.1173C11.4722 26.0471 11.4586 25.9774 11.4319 25.9124C11.4052 25.8474 11.3659 25.7884 11.3163 25.7386C11.2667 25.6888 11.2078 25.6493 11.1429 25.6224C11.078 25.5954 11.0084 25.5815 10.9382 25.5815H6.67793C6.60766 25.5813 6.53803 25.5949 6.47304 25.6216C6.40804 25.6483 6.34896 25.6876 6.29918 25.7372C6.2494 25.7867 6.2099 25.8457 6.18295 25.9106C6.156 25.9755 6.14213 26.045 6.14213 26.1153V30.9113H4.51659C3.79749 30.9637 3.84986 31.9971 4.54479 31.9789ZM22.1296 18.1206H25.3303V30.9113H22.1296V18.1206ZM14.6706 22.3828H17.8714V30.9113H14.6706V22.3828ZM7.20769 26.6471H10.4064V30.9113H7.20769V26.6471Z" fill="url(#paint0_radial_2001_168)"/>
</g>
<defs>
<filter id="filter0_di_2001_168" x="0" y="0" width="40" height="39.9792" filterUnits="userSpaceOnUse" color-interpolation-filters="sRGB">
<feFlood flood-opacity="0" result="BackgroundImageFix"/>
<feColorMatrix in="SourceAlpha" type="matrix" values="0 0 0 0 0 0 0 0 0 0 0 0 0 0 0 0 0 0 127 0" result="hardAlpha"/>
<feOffset dy="4"/>
<feGaussianBlur stdDeviation="2"/>
<feComposite in2="hardAlpha" operator="out"/>
<feColorMatrix type="matrix" values="0 0 0 0 0 0 0 0 0 0 0 0 0 0 0 0 0 0 0.25 0"/>
<feBlend mode="normal" in2="BackgroundImageFix" result="effect1_dropShadow_2001_168"/>
<feBlend mode="normal" in="SourceGraphic" in2="effect1_dropShadow_2001_168" result="shape"/>
<feColorMatrix in="SourceAlpha" type="matrix" values="0 0 0 0 0 0 0 0 0 0 0 0 0 0 0 0 0 0 127 0" result="hardAlpha"/>
<feOffset dy="-5"/>
<feComposite in2="hardAlpha" operator="arithmetic" k2="-1" k3="1"/>
<feColorMatrix type="matrix" values="0 0 0 0 0.980392 0 0 0 0 0.368627 0 0 0 0 0.027451 0 0 0 0.4 0"/>
<feBlend mode="normal" in2="shape" result="effect2_innerShadow_2001_168"/>
</filter>
<radialGradient id="paint0_radial_2001_168" cx="0" cy="0" r="1" gradientUnits="userSpaceOnUse" gradientTransform="translate(20 15.9896) scale(16 15.9896)">
<stop offset="0.00480769" stop-color="#F5B201"/>
<stop offset="1" stop-color="#F9C301"/>
</radialGradient>
</defs>
</svg>
