<svg width="72" height="75" viewBox="0 0 72 75" fill="none" xmlns="http://www.w3.org/2000/svg">
<g filter="url(#filter0_di_2001_123)">
<path d="M59.7991 66.7101H42.5091L37.8891 59.7801C37.6791 59.5001 37.3991 59.2201 37.0491 59.0801C36.6991 58.9401 36.3491 58.8001 35.9991 58.8001C35.6491 58.8001 35.2991 58.8701 34.9491 59.0801C34.5991 59.2201 34.3191 59.5001 34.1091 59.7801L29.4891 66.7101H12.1991C10.0991 66.7101 8.06906 65.8701 6.59906 64.4001C5.12906 62.9301 4.28906 60.9001 4.28906 58.8001V37.7301C4.28906 36.6801 4.42906 35.6301 4.84906 34.6501C5.19906 33.6001 5.82906 32.7601 6.52906 31.9901C7.29906 31.2201 8.13906 30.6601 9.11906 30.2401C10.0991 29.8201 11.1491 29.6101 12.1991 29.6101H59.7991C60.8491 29.6101 61.8991 29.8201 62.8791 30.2401C63.8591 30.6601 64.7691 31.2201 65.4691 31.9901C66.2391 32.7601 66.7991 33.6701 67.1491 34.6501C67.5691 35.6301 67.7091 36.6801 67.7091 37.7301V58.8001C67.7091 60.9001 66.8691 62.9301 65.3291 64.4001C63.8591 65.8701 61.8991 66.7101 59.7991 66.7101ZM45.3091 61.3201H59.7991C60.4991 61.3201 61.1991 61.0401 61.6891 60.5501C62.1791 60.0601 62.4591 59.3601 62.4591 58.6601V37.7301C62.4591 37.0301 62.1791 36.3301 61.6891 35.8401C61.1991 35.2801 60.4991 35.0001 59.7991 35.0001H12.1991C11.4991 35.0001 10.7991 35.2801 10.3091 35.7701C9.81906 36.2601 9.53906 36.9601 9.53906 37.6601V58.8001C9.53906 59.5001 9.81906 60.2001 10.3091 60.6901C10.7991 61.1801 11.4991 61.4601 12.1991 61.4601H26.6191L29.6291 56.9101C30.3291 55.8601 31.2391 55.0201 32.3591 54.4601C33.4791 53.9001 34.6691 53.5501 35.9291 53.5501C37.1891 53.5501 38.3791 53.8301 39.4991 54.4601C40.6191 55.0201 41.5291 55.9301 42.2291 56.9101L45.3091 61.3201Z" fill="url(#paint0_radial_2001_123)"/>
</g>
<g filter="url(#filter1_di_2001_123)">
<path d="M14.8594 40.25H20.1094V45.57H14.8594V40.25Z" fill="url(#paint1_radial_2001_123)"/>
</g>
<g filter="url(#filter2_di_2001_123)">
<path d="M14.8594 50.8201H20.1094V56.1401H14.8594V50.8201Z" fill="url(#paint2_radial_2001_123)"/>
</g>
<g filter="url(#filter3_di_2001_123)">
<path d="M65.0492 35H6.94922V32.27C6.94922 24.57 10.0292 17.15 15.4892 11.69C20.8792 6.29997 28.2992 3.21997 35.9992 3.21997C43.6992 3.21997 51.1192 6.29997 56.5792 11.76C62.0392 17.22 65.1192 24.64 65.1192 32.34V35H65.0492ZM12.3392 29.61H59.6592C58.9592 23.8 56.2292 18.48 51.8192 14.63C47.4792 10.78 41.8092 8.60997 35.9992 8.60997C30.1892 8.60997 24.5192 10.78 20.1792 14.63C15.8392 18.48 13.0392 23.8 12.3392 29.61Z" fill="url(#paint3_radial_2001_123)"/>
</g>
<g filter="url(#filter4_di_2001_123)">
<path d="M58.75 24.3601C54.55 21.0001 49.3 19.1101 43.91 19.1801H28.09C22.7 19.1801 17.45 21.0001 13.25 24.3601L9.95996 20.2301C15.14 16.1001 21.51 13.8601 28.09 13.8601H43.91C50.49 13.8601 56.93 16.1001 62.04 20.2301L58.75 24.3601Z" fill="url(#paint4_radial_2001_123)"/>
</g>
<defs>
<filter id="filter0_di_2001_123" x="0.289062" y="29.6101" width="71.4199" height="45.1001" filterUnits="userSpaceOnUse" color-interpolation-filters="sRGB">
<feFlood flood-opacity="0" result="BackgroundImageFix"/>
<feColorMatrix in="SourceAlpha" type="matrix" values="0 0 0 0 0 0 0 0 0 0 0 0 0 0 0 0 0 0 127 0" result="hardAlpha"/>
<feOffset dy="4"/>
<feGaussianBlur stdDeviation="2"/>
<feComposite in2="hardAlpha" operator="out"/>
<feColorMatrix type="matrix" values="0 0 0 0 0 0 0 0 0 0 0 0 0 0 0 0 0 0 0.25 0"/>
<feBlend mode="normal" in2="BackgroundImageFix" result="effect1_dropShadow_2001_123"/>
<feBlend mode="normal" in="SourceGraphic" in2="effect1_dropShadow_2001_123" result="shape"/>
<feColorMatrix in="SourceAlpha" type="matrix" values="0 0 0 0 0 0 0 0 0 0 0 0 0 0 0 0 0 0 127 0" result="hardAlpha"/>
<feOffset dy="-5"/>
<feComposite in2="hardAlpha" operator="arithmetic" k2="-1" k3="1"/>
<feColorMatrix type="matrix" values="0 0 0 0 0.980392 0 0 0 0 0.368627 0 0 0 0 0.027451 0 0 0 0.4 0"/>
<feBlend mode="normal" in2="shape" result="effect2_innerShadow_2001_123"/>
</filter>
<filter id="filter1_di_2001_123" x="10.8594" y="40.25" width="13.25" height="13.3201" filterUnits="userSpaceOnUse" color-interpolation-filters="sRGB">
<feFlood flood-opacity="0" result="BackgroundImageFix"/>
<feColorMatrix in="SourceAlpha" type="matrix" values="0 0 0 0 0 0 0 0 0 0 0 0 0 0 0 0 0 0 127 0" result="hardAlpha"/>
<feOffset dy="4"/>
<feGaussianBlur stdDeviation="2"/>
<feComposite in2="hardAlpha" operator="out"/>
<feColorMatrix type="matrix" values="0 0 0 0 0 0 0 0 0 0 0 0 0 0 0 0 0 0 0.25 0"/>
<feBlend mode="normal" in2="BackgroundImageFix" result="effect1_dropShadow_2001_123"/>
<feBlend mode="normal" in="SourceGraphic" in2="effect1_dropShadow_2001_123" result="shape"/>
<feColorMatrix in="SourceAlpha" type="matrix" values="0 0 0 0 0 0 0 0 0 0 0 0 0 0 0 0 0 0 127 0" result="hardAlpha"/>
<feOffset dy="-5"/>
<feComposite in2="hardAlpha" operator="arithmetic" k2="-1" k3="1"/>
<feColorMatrix type="matrix" values="0 0 0 0 0.980392 0 0 0 0 0.368627 0 0 0 0 0.027451 0 0 0 0.4 0"/>
<feBlend mode="normal" in2="shape" result="effect2_innerShadow_2001_123"/>
</filter>
<filter id="filter2_di_2001_123" x="10.8594" y="50.8201" width="13.25" height="13.3201" filterUnits="userSpaceOnUse" color-interpolation-filters="sRGB">
<feFlood flood-opacity="0" result="BackgroundImageFix"/>
<feColorMatrix in="SourceAlpha" type="matrix" values="0 0 0 0 0 0 0 0 0 0 0 0 0 0 0 0 0 0 127 0" result="hardAlpha"/>
<feOffset dy="4"/>
<feGaussianBlur stdDeviation="2"/>
<feComposite in2="hardAlpha" operator="out"/>
<feColorMatrix type="matrix" values="0 0 0 0 0 0 0 0 0 0 0 0 0 0 0 0 0 0 0.25 0"/>
<feBlend mode="normal" in2="BackgroundImageFix" result="effect1_dropShadow_2001_123"/>
<feBlend mode="normal" in="SourceGraphic" in2="effect1_dropShadow_2001_123" result="shape"/>
<feColorMatrix in="SourceAlpha" type="matrix" values="0 0 0 0 0 0 0 0 0 0 0 0 0 0 0 0 0 0 127 0" result="hardAlpha"/>
<feOffset dy="-5"/>
<feComposite in2="hardAlpha" operator="arithmetic" k2="-1" k3="1"/>
<feColorMatrix type="matrix" values="0 0 0 0 0.980392 0 0 0 0 0.368627 0 0 0 0 0.027451 0 0 0 0.4 0"/>
<feBlend mode="normal" in2="shape" result="effect2_innerShadow_2001_123"/>
</filter>
<filter id="filter3_di_2001_123" x="2.94922" y="3.21997" width="66.1699" height="39.78" filterUnits="userSpaceOnUse" color-interpolation-filters="sRGB">
<feFlood flood-opacity="0" result="BackgroundImageFix"/>
<feColorMatrix in="SourceAlpha" type="matrix" values="0 0 0 0 0 0 0 0 0 0 0 0 0 0 0 0 0 0 127 0" result="hardAlpha"/>
<feOffset dy="4"/>
<feGaussianBlur stdDeviation="2"/>
<feComposite in2="hardAlpha" operator="out"/>
<feColorMatrix type="matrix" values="0 0 0 0 0 0 0 0 0 0 0 0 0 0 0 0 0 0 0.25 0"/>
<feBlend mode="normal" in2="BackgroundImageFix" result="effect1_dropShadow_2001_123"/>
<feBlend mode="normal" in="SourceGraphic" in2="effect1_dropShadow_2001_123" result="shape"/>
<feColorMatrix in="SourceAlpha" type="matrix" values="0 0 0 0 0 0 0 0 0 0 0 0 0 0 0 0 0 0 127 0" result="hardAlpha"/>
<feOffset dy="-5"/>
<feComposite in2="hardAlpha" operator="arithmetic" k2="-1" k3="1"/>
<feColorMatrix type="matrix" values="0 0 0 0 0.980392 0 0 0 0 0.368627 0 0 0 0 0.027451 0 0 0 0.4 0"/>
<feBlend mode="normal" in2="shape" result="effect2_innerShadow_2001_123"/>
</filter>
<filter id="filter4_di_2001_123" x="5.95996" y="13.8601" width="60.0801" height="18.5" filterUnits="userSpaceOnUse" color-interpolation-filters="sRGB">
<feFlood flood-opacity="0" result="BackgroundImageFix"/>
<feColorMatrix in="SourceAlpha" type="matrix" values="0 0 0 0 0 0 0 0 0 0 0 0 0 0 0 0 0 0 127 0" result="hardAlpha"/>
<feOffset dy="4"/>
<feGaussianBlur stdDeviation="2"/>
<feComposite in2="hardAlpha" operator="out"/>
<feColorMatrix type="matrix" values="0 0 0 0 0 0 0 0 0 0 0 0 0 0 0 0 0 0 0.25 0"/>
<feBlend mode="normal" in2="BackgroundImageFix" result="effect1_dropShadow_2001_123"/>
<feBlend mode="normal" in="SourceGraphic" in2="effect1_dropShadow_2001_123" result="shape"/>
<feColorMatrix in="SourceAlpha" type="matrix" values="0 0 0 0 0 0 0 0 0 0 0 0 0 0 0 0 0 0 127 0" result="hardAlpha"/>
<feOffset dy="-5"/>
<feComposite in2="hardAlpha" operator="arithmetic" k2="-1" k3="1"/>
<feColorMatrix type="matrix" values="0 0 0 0 0.980392 0 0 0 0 0.368627 0 0 0 0 0.027451 0 0 0 0.4 0"/>
<feBlend mode="normal" in2="shape" result="effect2_innerShadow_2001_123"/>
</filter>
<radialGradient id="paint0_radial_2001_123" cx="0" cy="0" r="1" gradientUnits="userSpaceOnUse" gradientTransform="translate(35.9991 48.1601) scale(31.71 18.55)">
<stop offset="0.00480769" stop-color="#F5B201"/>
<stop offset="1" stop-color="#F9C301"/>
</radialGradient>
<radialGradient id="paint1_radial_2001_123" cx="0" cy="0" r="1" gradientUnits="userSpaceOnUse" gradientTransform="translate(17.4844 42.91) scale(2.625 2.66)">
<stop offset="0.00480769" stop-color="#F5B201"/>
<stop offset="1" stop-color="#F9C301"/>
</radialGradient>
<radialGradient id="paint2_radial_2001_123" cx="0" cy="0" r="1" gradientUnits="userSpaceOnUse" gradientTransform="translate(17.4844 53.4801) scale(2.625 2.66)">
<stop offset="0.00480769" stop-color="#F5B201"/>
<stop offset="1" stop-color="#F9C301"/>
</radialGradient>
<radialGradient id="paint3_radial_2001_123" cx="0" cy="0" r="1" gradientUnits="userSpaceOnUse" gradientTransform="translate(36.0342 19.11) scale(29.085 15.89)">
<stop offset="0.00480769" stop-color="#F5B201"/>
<stop offset="1" stop-color="#F9C301"/>
</radialGradient>
<radialGradient id="paint4_radial_2001_123" cx="0" cy="0" r="1" gradientUnits="userSpaceOnUse" gradientTransform="translate(36 19.1101) scale(26.04 5.25)">
<stop offset="0.00480769" stop-color="#F5B201"/>
<stop offset="1" stop-color="#F9C301"/>
</radialGradient>
</defs>
</svg>
