<svg width="72" height="72" viewBox="0 0 72 72" fill="none" xmlns="http://www.w3.org/2000/svg">
<g filter="url(#filter0_di_2001_157)">
<path d="M59.8704 63.85H42.5104L37.8904 56.92C37.6804 56.64 37.4004 56.36 37.0504 56.22C36.7004 56.08 36.3504 55.94 36.0004 55.94C35.6504 55.94 35.3004 56.01 34.9504 56.22C34.6004 56.36 34.3204 56.64 34.1104 56.92L29.4904 63.85H12.1304C10.0304 63.85 8.00039 63.01 6.46039 61.54C4.99039 60.07 4.15039 58.04 4.15039 55.87V34.73C4.15039 32.63 4.99039 30.6 6.53039 29.13C8.00039 27.66 10.0304 26.82 12.2004 26.82H25.4304V32H12.1304C11.4304 32 10.7304 32.28 10.2404 32.77C9.75039 33.26 9.47039 33.96 9.47039 34.66V55.87C9.47039 56.57 9.75039 57.27 10.2404 57.76C10.7304 58.25 11.4304 58.53 12.1304 58.53H26.6204L29.6304 53.91C30.3304 52.86 31.2404 52.02 32.3604 51.39C33.4804 50.83 34.6704 50.48 35.9304 50.48C37.1904 50.48 38.3804 50.76 39.5004 51.39C40.6204 51.95 41.5304 52.86 42.2304 53.91L45.2404 58.46H59.7304C60.4304 58.46 61.1304 58.18 61.6204 57.69C62.1104 57.2 62.3904 56.5 62.3904 55.8V34.73C62.3904 34.03 62.1104 33.33 61.6204 32.84C61.1304 32.35 60.4304 32.07 59.7304 32.07H46.6404V26.75H59.8704C60.9204 26.75 61.9704 26.96 62.9504 27.38C63.9304 27.8 64.7704 28.36 65.5404 29.13C66.3104 29.9 66.8704 30.74 67.2904 31.72C67.7104 32.7 67.9204 33.75 67.9204 34.8V56.01C67.9204 58.11 67.0804 60.14 65.5404 61.61C64.0004 63.01 61.9704 63.85 59.8704 63.85Z" fill="url(#paint0_radial_2001_157)"/>
<path d="M14.79 37.3198H20.11V42.6398H14.79V37.3198Z" fill="url(#paint1_radial_2001_157)"/>
<path d="M14.79 47.8899H20.11V53.2099H14.79V47.8899Z" fill="url(#paint2_radial_2001_157)"/>
<path d="M36.0002 32.6299L34.3902 31.4399C33.2002 30.5299 22.7002 22.4099 22.7002 13.4499C22.7002 9.9499 24.1002 6.5199 26.6202 4.0699C29.0702 1.5499 32.5002 0.149902 36.0002 0.149902C39.5002 0.149902 42.9302 1.5499 45.3802 4.0699C47.8302 6.5899 49.3002 9.8799 49.3002 13.4499C49.3002 22.4799 38.8002 30.5999 37.6102 31.5099L36.0002 32.6299ZM36.0002 5.4699C33.9002 5.4699 31.8702 6.3099 30.4002 7.7799C28.9302 9.2499 28.0902 11.2799 28.0902 13.3799C28.0902 17.9299 32.9202 23.1099 36.0702 25.8399C39.2202 23.1099 44.0502 17.8599 44.0502 13.3799C44.0502 11.2799 43.2102 9.2499 41.7402 7.7799C40.1302 6.3099 38.1002 5.4699 36.0002 5.4699Z" fill="url(#paint3_radial_2001_157)"/>
<path d="M36.0008 16.1098C37.4708 16.1098 38.6608 14.9198 38.6608 13.4498C38.6608 11.9798 37.4708 10.7898 36.0008 10.7898C34.5308 10.7898 33.3408 11.9798 33.3408 13.4498C33.3408 14.9198 34.5308 16.1098 36.0008 16.1098Z" fill="url(#paint4_radial_2001_157)"/>
</g>
<defs>
<filter id="filter0_di_2001_157" x="0.150391" y="0.149902" width="71.7695" height="71.7002" filterUnits="userSpaceOnUse" color-interpolation-filters="sRGB">
<feFlood flood-opacity="0" result="BackgroundImageFix"/>
<feColorMatrix in="SourceAlpha" type="matrix" values="0 0 0 0 0 0 0 0 0 0 0 0 0 0 0 0 0 0 127 0" result="hardAlpha"/>
<feOffset dy="4"/>
<feGaussianBlur stdDeviation="2"/>
<feComposite in2="hardAlpha" operator="out"/>
<feColorMatrix type="matrix" values="0 0 0 0 0 0 0 0 0 0 0 0 0 0 0 0 0 0 0.25 0"/>
<feBlend mode="normal" in2="BackgroundImageFix" result="effect1_dropShadow_2001_157"/>
<feBlend mode="normal" in="SourceGraphic" in2="effect1_dropShadow_2001_157" result="shape"/>
<feColorMatrix in="SourceAlpha" type="matrix" values="0 0 0 0 0 0 0 0 0 0 0 0 0 0 0 0 0 0 127 0" result="hardAlpha"/>
<feOffset dy="-5"/>
<feComposite in2="hardAlpha" operator="arithmetic" k2="-1" k3="1"/>
<feColorMatrix type="matrix" values="0 0 0 0 0.980392 0 0 0 0 0.368627 0 0 0 0 0.027451 0 0 0 0.4 0"/>
<feBlend mode="normal" in2="shape" result="effect2_innerShadow_2001_157"/>
</filter>
<radialGradient id="paint0_radial_2001_157" cx="0" cy="0" r="1" gradientUnits="userSpaceOnUse" gradientTransform="translate(36.0354 45.3) scale(31.885 18.55)">
<stop offset="0.00480769" stop-color="#F5B201"/>
<stop offset="1" stop-color="#F9C301"/>
</radialGradient>
<radialGradient id="paint1_radial_2001_157" cx="0" cy="0" r="1" gradientUnits="userSpaceOnUse" gradientTransform="translate(17.45 39.9798) scale(2.66)">
<stop offset="0.00480769" stop-color="#F5B201"/>
<stop offset="1" stop-color="#F9C301"/>
</radialGradient>
<radialGradient id="paint2_radial_2001_157" cx="0" cy="0" r="1" gradientUnits="userSpaceOnUse" gradientTransform="translate(17.45 50.5499) scale(2.66 2.66)">
<stop offset="0.00480769" stop-color="#F5B201"/>
<stop offset="1" stop-color="#F9C301"/>
</radialGradient>
<radialGradient id="paint3_radial_2001_157" cx="0" cy="0" r="1" gradientUnits="userSpaceOnUse" gradientTransform="translate(36.0002 16.3899) scale(13.3 16.24)">
<stop offset="0.00480769" stop-color="#F5B201"/>
<stop offset="1" stop-color="#F9C301"/>
</radialGradient>
<radialGradient id="paint4_radial_2001_157" cx="0" cy="0" r="1" gradientUnits="userSpaceOnUse" gradientTransform="translate(36.0008 13.4498) scale(2.66)">
<stop offset="0.00480769" stop-color="#F5B201"/>
<stop offset="1" stop-color="#F9C301"/>
</radialGradient>
</defs>
</svg>
