<svg width="78" height="70" viewBox="0 0 78 70" fill="none" xmlns="http://www.w3.org/2000/svg">
<g filter="url(#filter0_di_2001_134)">
<path d="M63.8221 51.3825L36.1045 37.6323V6.58569L63.8221 20.3359V51.3825ZM41.8941 34.1585L58.4667 42.481V23.8097L41.8941 15.4872V34.1585Z" fill="url(#paint0_radial_2001_134)"/>
<path d="M14.1768 51.3825V20.3359L41.8943 6.58569V37.6323L14.1768 51.3825ZM19.6769 23.8097V42.481L36.1771 34.1585V15.4872L19.6769 23.8097Z" fill="url(#paint1_radial_2001_134)"/>
<path d="M38.9996 61.0801L10.7754 46.968L38.9996 32.856L67.2237 46.968L38.9996 61.0801ZM23.1506 46.968L39.0719 54.9287L54.9933 46.968L39.0719 39.0074L23.1506 46.968Z" fill="url(#paint2_radial_2001_134)"/>
<path d="M4.62402 50.0074L26.6968 38.9348L29.1573 43.856L7.15696 54.9285L4.62402 50.0074Z" fill="url(#paint3_radial_2001_134)"/>
<path d="M48.8418 43.9285L51.3024 39.0073L73.3751 50.0075L70.8422 54.9286L48.8418 43.9285Z" fill="url(#paint4_radial_2001_134)"/>
<path d="M36.25 0H41.7501V11.0002H36.25V0Z" fill="url(#paint5_radial_2001_134)"/>
</g>
<defs>
<filter id="filter0_di_2001_134" x="0.624023" y="0" width="76.751" height="69.0801" filterUnits="userSpaceOnUse" color-interpolation-filters="sRGB">
<feFlood flood-opacity="0" result="BackgroundImageFix"/>
<feColorMatrix in="SourceAlpha" type="matrix" values="0 0 0 0 0 0 0 0 0 0 0 0 0 0 0 0 0 0 127 0" result="hardAlpha"/>
<feOffset dy="4"/>
<feGaussianBlur stdDeviation="2"/>
<feComposite in2="hardAlpha" operator="out"/>
<feColorMatrix type="matrix" values="0 0 0 0 0 0 0 0 0 0 0 0 0 0 0 0 0 0 0.25 0"/>
<feBlend mode="normal" in2="BackgroundImageFix" result="effect1_dropShadow_2001_134"/>
<feBlend mode="normal" in="SourceGraphic" in2="effect1_dropShadow_2001_134" result="shape"/>
<feColorMatrix in="SourceAlpha" type="matrix" values="0 0 0 0 0 0 0 0 0 0 0 0 0 0 0 0 0 0 127 0" result="hardAlpha"/>
<feOffset dy="-5"/>
<feComposite in2="hardAlpha" operator="arithmetic" k2="-1" k3="1"/>
<feColorMatrix type="matrix" values="0 0 0 0 0.980392 0 0 0 0 0.368627 0 0 0 0 0.027451 0 0 0 0.4 0"/>
<feBlend mode="normal" in2="shape" result="effect2_innerShadow_2001_134"/>
</filter>
<radialGradient id="paint0_radial_2001_134" cx="0" cy="0" r="1" gradientUnits="userSpaceOnUse" gradientTransform="translate(49.9633 28.9841) scale(13.8588 22.3984)">
<stop offset="0.00480769" stop-color="#F5B201"/>
<stop offset="1" stop-color="#F9C301"/>
</radialGradient>
<radialGradient id="paint1_radial_2001_134" cx="0" cy="0" r="1" gradientUnits="userSpaceOnUse" gradientTransform="translate(28.0355 28.9841) scale(13.8588 22.3984)">
<stop offset="0.00480769" stop-color="#F5B201"/>
<stop offset="1" stop-color="#F9C301"/>
</radialGradient>
<radialGradient id="paint2_radial_2001_134" cx="0" cy="0" r="1" gradientUnits="userSpaceOnUse" gradientTransform="translate(38.9996 46.968) scale(28.2242 14.1121)">
<stop offset="0.00480769" stop-color="#F5B201"/>
<stop offset="1" stop-color="#F9C301"/>
</radialGradient>
<radialGradient id="paint3_radial_2001_134" cx="0" cy="0" r="1" gradientUnits="userSpaceOnUse" gradientTransform="translate(16.8907 46.9317) scale(12.2667 7.99685)">
<stop offset="0.00480769" stop-color="#F5B201"/>
<stop offset="1" stop-color="#F9C301"/>
</radialGradient>
<radialGradient id="paint4_radial_2001_134" cx="0" cy="0" r="1" gradientUnits="userSpaceOnUse" gradientTransform="translate(61.1085 46.968) scale(12.2667 7.96066)">
<stop offset="0.00480769" stop-color="#F5B201"/>
<stop offset="1" stop-color="#F9C301"/>
</radialGradient>
<radialGradient id="paint5_radial_2001_134" cx="0" cy="0" r="1" gradientUnits="userSpaceOnUse" gradientTransform="translate(39 5.50009) scale(2.75005 5.50009)">
<stop offset="0.00480769" stop-color="#F5B201"/>
<stop offset="1" stop-color="#F9C301"/>
</radialGradient>
</defs>
</svg>
