<svg width="72" height="74" viewBox="0 0 72 74" fill="none" xmlns="http://www.w3.org/2000/svg">
<g filter="url(#filter0_di_2001_144)">
<path d="M54.1296 66.0101H17.8696C14.4396 66.0101 11.1496 64.6101 8.69961 62.2301C6.24961 59.7801 4.91961 56.4901 4.84961 53.0601V52.1501L16.6096 37.5201H28.2296V42.8401H19.1296L10.0996 53.9001C10.3096 55.7901 11.2196 57.5401 12.6196 58.8701C14.0196 60.1301 15.9096 60.8301 17.7996 60.8301H54.1296C56.0196 60.8301 57.9096 60.1301 59.3096 58.8701C60.7096 57.6101 61.6196 55.8601 61.8296 53.9001L52.8696 42.7001H43.7696V37.3801H55.3896L67.1496 52.0101V52.9201C67.1496 54.6001 66.7996 56.3501 66.1696 57.8901C65.5396 59.5001 64.5596 60.9001 63.3696 62.1601C62.1796 63.3501 60.7096 64.3301 59.1696 65.0301C57.5596 65.6601 55.8796 65.9401 54.1296 66.0101Z" fill="url(#paint0_radial_2001_144)"/>
<path d="M7.43945 50.4001H64.5595V55.5801H7.43945V50.4001Z" fill="url(#paint1_radial_2001_144)"/>
<path d="M33.4092 32.27H38.5892V45.22H33.4092V32.27Z" fill="url(#paint2_radial_2001_144)"/>
<path d="M36 36.9601L20.46 29.1901V11.6901L36 4.06006L51.54 11.6901V29.1901L36 36.9601ZM25.64 25.9701L36 31.2901L46.36 25.9701V14.9101L36 9.80006L25.64 14.9101V25.9701Z" fill="url(#paint3_radial_2001_144)"/>
<path d="M38.5897 34.0901H33.4097V21.2801L21.9297 15.6101L23.0497 13.3001V10.6401H23.6797L38.5897 17.9901V34.0901Z" fill="url(#paint4_radial_2001_144)"/>
<path d="M38.5892 34.0901H33.4092V17.9901L48.3192 10.6401H48.9492V13.3001L50.0692 15.6101L38.5892 21.2801V34.0901Z" fill="url(#paint5_radial_2001_144)"/>
<path d="M35.9997 22.5401L21.9297 15.6101L23.0497 13.3001V10.6401H23.6797L24.2397 10.9201L35.9997 16.7301L48.3197 10.6401H48.9497V13.3001L50.0697 15.6101L35.9997 22.5401Z" fill="url(#paint6_radial_2001_144)"/>
</g>
<defs>
<filter id="filter0_di_2001_144" x="0.849609" y="4.06006" width="70.2998" height="69.95" filterUnits="userSpaceOnUse" color-interpolation-filters="sRGB">
<feFlood flood-opacity="0" result="BackgroundImageFix"/>
<feColorMatrix in="SourceAlpha" type="matrix" values="0 0 0 0 0 0 0 0 0 0 0 0 0 0 0 0 0 0 127 0" result="hardAlpha"/>
<feOffset dy="4"/>
<feGaussianBlur stdDeviation="2"/>
<feComposite in2="hardAlpha" operator="out"/>
<feColorMatrix type="matrix" values="0 0 0 0 0 0 0 0 0 0 0 0 0 0 0 0 0 0 0.25 0"/>
<feBlend mode="normal" in2="BackgroundImageFix" result="effect1_dropShadow_2001_144"/>
<feBlend mode="normal" in="SourceGraphic" in2="effect1_dropShadow_2001_144" result="shape"/>
<feColorMatrix in="SourceAlpha" type="matrix" values="0 0 0 0 0 0 0 0 0 0 0 0 0 0 0 0 0 0 127 0" result="hardAlpha"/>
<feOffset dy="-5"/>
<feComposite in2="hardAlpha" operator="arithmetic" k2="-1" k3="1"/>
<feColorMatrix type="matrix" values="0 0 0 0 0.980392 0 0 0 0 0.368627 0 0 0 0 0.027451 0 0 0 0.4 0"/>
<feBlend mode="normal" in2="shape" result="effect2_innerShadow_2001_144"/>
</filter>
<radialGradient id="paint0_radial_2001_144" cx="0" cy="0" r="1" gradientUnits="userSpaceOnUse" gradientTransform="translate(35.9996 51.6951) scale(31.15 14.315)">
<stop offset="0.00480769" stop-color="#F5B201"/>
<stop offset="1" stop-color="#F9C301"/>
</radialGradient>
<radialGradient id="paint1_radial_2001_144" cx="0" cy="0" r="1" gradientUnits="userSpaceOnUse" gradientTransform="translate(35.9995 52.9901) scale(28.56 2.59)">
<stop offset="0.00480769" stop-color="#F5B201"/>
<stop offset="1" stop-color="#F9C301"/>
</radialGradient>
<radialGradient id="paint2_radial_2001_144" cx="0" cy="0" r="1" gradientUnits="userSpaceOnUse" gradientTransform="translate(35.9992 38.745) scale(2.59 6.475)">
<stop offset="0.00480769" stop-color="#F5B201"/>
<stop offset="1" stop-color="#F9C301"/>
</radialGradient>
<radialGradient id="paint3_radial_2001_144" cx="0" cy="0" r="1" gradientUnits="userSpaceOnUse" gradientTransform="translate(36 20.5101) scale(15.54 16.45)">
<stop offset="0.00480769" stop-color="#F5B201"/>
<stop offset="1" stop-color="#F9C301"/>
</radialGradient>
<radialGradient id="paint4_radial_2001_144" cx="0" cy="0" r="1" gradientUnits="userSpaceOnUse" gradientTransform="translate(30.2597 22.3651) scale(8.33 11.725)">
<stop offset="0.00480769" stop-color="#F5B201"/>
<stop offset="1" stop-color="#F9C301"/>
</radialGradient>
<radialGradient id="paint5_radial_2001_144" cx="0" cy="0" r="1" gradientUnits="userSpaceOnUse" gradientTransform="translate(41.7392 22.3651) scale(8.33 11.725)">
<stop offset="0.00480769" stop-color="#F5B201"/>
<stop offset="1" stop-color="#F9C301"/>
</radialGradient>
<radialGradient id="paint6_radial_2001_144" cx="0" cy="0" r="1" gradientUnits="userSpaceOnUse" gradientTransform="translate(35.9997 16.5901) scale(14.07 5.95)">
<stop offset="0.00480769" stop-color="#F5B201"/>
<stop offset="1" stop-color="#F9C301"/>
</radialGradient>
</defs>
</svg>
